<svg xmlns="http://www.w3.org/2000/svg" data-name="Layer 1" viewBox="0 0 100 100" x="0px" y="0px"><title>animals</title><path d="M68.21,11.67L55.27,29.91H44.13L31.2,11.67l-13.44,40L37,70.45l4.25,15.83H58.17l4.25-15.83,19.23-18.8Zm10.33,37-8.76-7.26L65.18,29l-3.31,5.88-4.83-4L67.57,16ZM60.65,52.45L51.33,40.21l4.46-7.78,22,18.2ZM49.7,39l-4.09-7.12h8.18ZM38.76,52.45L21.65,50.63l22-18.2,4.46,7.78ZM31.84,16L42.37,30.87l-4.83,4L34.23,29,29.64,41.42l-8.76,7.26ZM38.78,69.4L21.64,52.64l12,1.28,6.25,6.41V54.18A1,1,0,0,0,40,54.11L48.7,42.69v36.9l-5.52,4.69H42.77Zm21.85,0-4,14.87H56.23L50.7,79.58V42.69l8.56,11.26v6.38l6.22-6.38,12.28-1.31Z"></path></svg>